<svg xmlns="http://www.w3.org/2000/svg" width="371" height="314" viewBox="0 0 371 314">
  <defs>
    <style>
      .cls-1 {
        fill: #3dc0b0;
        fill-rule: evenodd;
      }
    </style>
  </defs>
  <path id="H" class="cls-1" d="M106.05,277.9q6.447-4.5,9.45-14.7,0.9-3,3.9-12.9t7.5-24.15q4.5-14.246,9.9-31.35t10.8-34.5q9-.9,18-1.2t21.3-.6q12.3-.3,30.6-0.3-5.1,16.8-9.3,31.65t-6.6,23.85a252.585,252.585,0,0,0-5.4,25.65A135.5,135.5,0,0,0,194.4,259q0,11.4,4.5,16.8t16.2,6.6q-0.3-2.1-.45-4.65t-0.15-6.15a245.441,245.441,0,0,1,2.25-29.1q2.25-18,7.65-43.5,1.8-9.3,4.2-19.65t5.1-21.45a58.627,58.627,0,0,0,12.3-1.35q6.3-1.35,12.9-8.25-5.4,0-10.95-.45t-11.55-.75q5.4-20.4,10.95-40.8t10.95-37.65q5.4-17.248,9.6-28.35a11.39,11.39,0,0,0-7.65,3,26.3,26.3,0,0,0-5.55,6.6q-2.1,3.6-3.3,6-2.7,5.7-7.65,19.65t-10.8,32.55q-5.85,18.6-11.85,37.8-11.4-1.2-24.15-1.95t-26.85-.75q-4.5,0-8.85.15t-8.55.45l23.4-76.2q0.9-3,1.65-6.3a29.843,29.843,0,0,0,.75-6.6,18.143,18.143,0,0,0-2.85-9.9q-2.854-4.5-10.95-4.5-8.4,0-18.75,5.1a86.753,86.753,0,0,0-19.8,13.65A80.01,80.01,0,0,0,110.7,77.8a39.919,39.919,0,0,0-6,20.4,18.566,18.566,0,0,0,4.05,12.15q4.05,4.95,13.95,4.95a42.781,42.781,0,0,1-1.049-4.8,32.687,32.687,0,0,1-.451-5.4,58.118,58.118,0,0,1,3-17.1,90.048,90.048,0,0,1,8.249-18.6,58.165,58.165,0,0,1,12-14.85q6.75-5.85,13.95-5.85,2.7,0,3.45.9a5.352,5.352,0,0,1,.75,3.3,32.614,32.614,0,0,1-1.5,9.45q-1.5,4.95-2.7,8.25-3,8.7-5.85,17.1T147,103.751q-2.7,7.65-5.1,15t-4.65,14.1Q135,139.6,132.9,145.9q-11.1,2.1-17.85,6.45T108,164.2q5.1-.6,10.049-1.2t9.75-.9q-8.1,24.6-13.5,42.6t-9.15,31.65q-3.755,13.655-6.15,24.6T94.8,282.4Q99.595,282.4,106.05,277.9Z"/>
</svg>
